<?xml version="1.0" standalone="no"?>
<!DOCTYPE svg PUBLIC "-//W3C//DTD SVG 20010904//EN"
 "http://www.w3.org/TR/2001/REC-SVG-20010904/DTD/svg10.dtd">
<svg version="1.0" xmlns="http://www.w3.org/2000/svg"
 width="125.000000pt" height="96.000000pt" viewBox="0 0 125.000000 96.000000"
 preserveAspectRatio="xMidYMid meet">

<g transform="translate(0.000000,96.000000) scale(0.100000,-0.100000)"
fill="#000000" stroke="none">
<path d="M1132 752 c-12 -12 -25 -53 -36 -110 -20 -114 -66 -242 -109 -307
-43 -66 -62 -69 -78 -13 -12 44 -5 111 22 204 15 51 7 74 -26 74 -21 0 -29
-10 -55 -66 -58 -129 -182 -286 -212 -268 -21 13 0 112 52 243 54 136 60 184
28 205 -30 18 -49 -4 -78 -90 -15 -43 -42 -122 -60 -174 -24 -68 -33 -114 -34
-161 -1 -84 17 -109 78 -109 49 0 96 31 150 99 41 52 56 56 56 17 0 -13 10
-38 23 -57 19 -28 30 -35 64 -37 38 -3 47 2 88 39 80 74 166 277 189 450 5 36
3 50 -9 63 -21 21 -31 20 -53 -2z"/>
<path d="M333 690 c-118 -59 -226 -211 -227 -321 -1 -50 3 -62 30 -96 30 -37
33 -38 101 -41 116 -5 237 52 231 107 -4 37 -33 38 -100 2 -31 -16 -75 -32
-99 -36 -37 -6 -45 -4 -61 15 -51 64 25 211 151 292 53 33 67 35 74 8 3 -14
14 -20 31 -20 23 0 26 4 26 38 0 78 -63 99 -157 52z"/>
</g>
</svg>
